<svg id="cart-svg" version="1.0" xmlns="http://www.w3.org/2000/svg" width="20px" height="16px" viewBox="0 0 50.000000 53.000000" preserveAspectRatio="xMidYMid meet">
<g transform="translate(0.000000,53.000000) scale(0.100000,-0.100000)" stroke="none">
<path d="M198 515 c-33 -18 -58 -63 -58 -102 0 -56 -10 -70 -51 -77 -23 -4
-42 -14 -49 -26 -9 -16 -40 -216 -40 -257 0 -7 9 -22 20 -33 19 -19 33 -20
229 -20 271 0 260 -7 242 146 -19 167 -32 194 -94 194 -26 0 -37 28 -37 91 0
69 -98 120 -162 84z m101 -42 c23 -22 30 -40 35 -80 l5 -53 -87 0 -88 0 6 56
c5 45 12 62 34 80 35 31 59 30 95 -3z m-173 -178 c4 -8 1 -22 -6 -30 -15 -18
-5 -35 20 -35 14 0 20 9 22 38 l3 37 87 3 88 3 0 -40 c0 -41 20 -60 39 -37 8
10 8 22 1 40 -8 21 -7 28 4 32 25 10 55 -15 60 -49 21 -127 27 -199 15 -213
-16 -19 -401 -21 -417 -1 -16 19 14 238 35 255 23 16 42 15 49 -3z" fill="currentcolor"></path>
</g>
</svg>